<svg width="20" height="18" viewBox="0 0 20 18" fill="none" xmlns="http://www.w3.org/2000/svg">
<path d="M15.8867 0C17.6758 0 19.1386 1.46289 19.1387 3.25195V11.1035C19.1385 12.8863 17.6816 14.3496 15.8926 14.3496H11.3799L10.6113 15.6777L9.85547 16.9873C9.71401 17.2267 9.36968 17.2267 9.23438 16.9873L8.47852 15.6777L7.70996 14.3496H3.24609C1.46331 14.3495 0.00018891 12.8924 0 11.1035V3.24609C0 1.46318 1.45704 6.0453e-05 3.24609 0H15.8867ZM14.3008 5.75684C13.397 5.75684 12.665 6.51305 12.665 7.44141C12.665 8.36977 13.397 9.12598 14.3008 9.12598C14.6757 9.1259 15.0196 8.99637 15.29 8.78125V9.24902C15.2883 9.25704 15.1854 9.70996 14.5029 9.70996V10.5771C14.5029 10.5771 15.2471 10.663 15.9111 9.99902C15.9111 9.99902 16.2184 9.67335 16.2861 9.24316V5.82422H15.29V6.10156C15.0135 5.88645 14.6695 5.75692 14.3008 5.75684ZM2.85254 9.16602H3.83594V8.85254C4.1126 9.09845 4.46327 9.25195 4.85059 9.25195C5.72966 9.25181 6.44238 8.47103 6.44238 7.50586C6.44229 6.54078 5.73574 5.75405 4.85059 5.75391C4.46944 5.75391 4.11259 5.9013 3.83594 6.15332V4.70898H2.85254V9.16602ZM10.4512 5.75391C9.47369 5.75399 8.68066 6.53479 8.68066 7.5C8.68086 8.46504 9.47381 9.24601 10.4512 9.24609C11.4286 9.24609 12.2215 8.46509 12.2217 7.5C12.2217 6.53475 11.4349 5.75391 10.4512 5.75391ZM6.55371 4.62109V5.5127C6.5679 5.51472 7.01004 5.58106 7.09473 6.0166V9.16406H8.1084V5.99219C8.04806 5.55775 7.79268 5.2298 7.7832 5.21777C7.21257 4.54394 6.56983 4.61908 6.55371 4.62109ZM4.65332 6.62695C5.14517 6.62695 5.53906 7.0143 5.53906 7.5C5.53901 7.98566 5.14514 8.37305 4.65332 8.37305C4.2907 8.37293 3.97702 8.15722 3.8418 7.84375C3.79887 7.73938 3.76857 7.62274 3.76855 7.5C3.76855 7.37704 3.79261 7.25979 3.8418 7.15527C3.97706 6.84191 4.29078 6.62707 4.65332 6.62695ZM10.4512 6.66309C10.9184 6.66309 11.2998 7.03889 11.2998 7.5C11.2996 7.96095 10.9245 8.33594 10.4512 8.33594C9.9841 8.33586 9.60273 7.9609 9.60254 7.5C9.60254 7.03894 9.98398 6.66317 10.4512 6.66309ZM14.4854 6.57422C14.8354 6.57439 15.1425 6.77124 15.29 7.05371C15.3515 7.17053 15.3828 7.30029 15.3828 7.43555C15.3828 7.57071 15.3453 7.70582 15.29 7.81641C15.1425 8.1052 14.8356 8.29573 14.4854 8.2959C13.9875 8.2959 13.5871 7.90883 13.5869 7.43555C13.5869 6.96214 13.9935 6.57422 14.4854 6.57422Z" fill="#555555"/>
</svg>
