<svg width="20" height="20" viewBox="0 0 20 20" fill="none" xmlns="http://www.w3.org/2000/svg">
<path d="M2.92796 1C2.57491 1.00141 2.28904 1.28728 2.2876 1.64036V18.3596C2.289 18.7127 2.57487 18.9986 2.92796 19L13.2161 18.995C13.3865 18.9963 13.5505 18.9299 13.6719 18.8104L17.5253 14.957C17.6466 14.8364 17.7148 14.6724 17.7149 14.5013V1.64036C17.7135 1.28728 17.4276 1.00141 17.0746 1L2.92796 1ZM3.57335 2.28696H16.428V13.8559H13.2162C12.8592 13.8545 12.5694 14.1442 12.5708 14.5012V17.7092L3.57335 17.7142V2.28696ZM6.75621 6.14409C5.89884 6.18523 5.96039 7.47219 6.81772 7.43105H13.2161C14.0735 7.43105 14.0735 6.14409 13.2161 6.14409H6.81772C6.79719 6.14313 6.77678 6.14313 6.75621 6.14409ZM6.70976 8.71676C5.91535 8.81034 5.97156 9.98061 6.77128 9.99745H13.1597C14.089 10.0759 14.089 8.63829 13.1597 8.71676H6.77128C6.75074 8.7158 6.73033 8.7158 6.70976 8.71676ZM6.7851 11.2832C6.42972 11.2832 6.1416 11.5713 6.1416 11.9267C6.1416 12.2821 6.42968 12.5702 6.7851 12.5702H9.99813C10.3535 12.5702 10.6416 12.2821 10.6416 11.9267C10.6416 11.5713 10.3535 11.2832 9.99813 11.2832H6.7851ZM13.8565 15.1416H15.5201L13.8565 16.804V15.1416Z" fill="#555555"/>
</svg>
