<svg width="18" height="18" viewBox="0 0 18 18" fill="none" xmlns="http://www.w3.org/2000/svg">
<mask id="mask0_2043_31119" style="mask-type:luminance" maskUnits="userSpaceOnUse" x="0" y="0" width="18" height="18">
<path d="M17.415 17.415V0.584961H0.584961V17.415H17.415Z" fill="white" stroke="white" stroke-width="1.17"/>
</mask>
<g mask="url(#mask0_2043_31119)">
<path d="M15.4297 5.3125H12.2305C11.4538 5.3125 10.8242 4.68289 10.8242 3.90625V0.707032" stroke="#00847C" stroke-width="1.17" stroke-miterlimit="10" stroke-linejoin="round"/>
<path d="M15.4302 5.3125V15.8906C15.4302 16.6673 14.8006 17.2969 14.0239 17.2969H3.97314C3.19651 17.2969 2.56689 16.6673 2.56689 15.8906V2.10938C2.56689 1.33271 3.19651 0.703127 3.97314 0.703127H10.8443L15.4302 5.3125Z" stroke="#00847C" stroke-width="1.17" stroke-miterlimit="10"/>
</g>
<path d="M4.89111 14.2933V10.6211H5.80212C6.30526 10.6211 6.7131 11.029 6.7131 11.5321C6.7131 12.0352 6.30523 12.4431 5.80212 12.4431H4.89111" stroke="#00847C" stroke-width="0.9072" stroke-miterlimit="10"/>
<path d="M13.215 12.4414H11.3931" stroke="#00847C" stroke-width="0.9072" stroke-miterlimit="10"/>
<path d="M9.05307 13.8397H8.14209V10.6211H9.05307C9.5562 10.6211 9.96405 11.0289 9.96405 11.5321V12.9288C9.96405 13.4319 9.5562 13.8397 9.05307 13.8397Z" stroke="#00847C" stroke-width="0.9072" stroke-miterlimit="10"/>
<path d="M11.3931 14.2933V10.6211H13.6686" stroke="#00847C" stroke-width="0.9072" stroke-miterlimit="10"/>
</svg>
