<svg width="20" height="20" viewBox="0 0 20 20" fill="none" xmlns="http://www.w3.org/2000/svg">
<path d="M14.5355 5.68019V2.17005H5.17512V5.68019H4.00507V1H15.7055V5.68019H14.5355ZM16.4251 9.77535C16.7566 9.77535 17.0347 9.66303 17.2594 9.43838C17.484 9.21373 17.5959 8.93604 17.5952 8.6053C17.5944 8.27457 17.4825 7.99649 17.2594 7.77106C17.0363 7.54563 16.7582 7.43331 16.4251 7.43409C16.092 7.43487 15.8144 7.54719 15.592 7.77106C15.3697 7.99493 15.2574 8.27301 15.2551 8.6053C15.2527 8.9376 15.3651 9.21529 15.592 9.43838C15.819 9.66147 16.0959 9.77379 16.4251 9.77535ZM14.5355 17.83V12.5203H5.17512V17.83H14.5355ZM15.7055 19H4.00507V14.3198H0V5.68019H19.7106V14.3198H15.7055V19ZM18.5406 13.1498V6.85023H1.17005V13.1498H4.00507V11.3502H15.7055V13.1498H18.5406Z" fill="#00847C"/>
</svg>
