<svg width="18" height="18" viewBox="0 0 18 18" fill="none" xmlns="http://www.w3.org/2000/svg">
<mask id="mask0_2043_31013" style="mask-type:luminance" maskUnits="userSpaceOnUse" x="0" y="0" width="18" height="18">
<path d="M17.415 17.415V0.584961H0.584961V17.415H17.415Z" fill="white" stroke="white" stroke-width="1.17"/>
</mask>
<g mask="url(#mask0_2043_31013)">
<path d="M15.4297 5.3125H12.2305C11.4538 5.3125 10.8242 4.68289 10.8242 3.90625V0.707032" stroke="#00847C" stroke-width="1.17" stroke-miterlimit="10" stroke-linejoin="round"/>
<path d="M15.4302 5.3125V15.8906C15.4302 16.6673 14.8006 17.2969 14.0239 17.2969H3.97314C3.19651 17.2969 2.56689 16.6673 2.56689 15.8906V2.10938C2.56689 1.33271 3.19651 0.703127 3.97314 0.703127H10.8443L15.4302 5.3125Z" stroke="#00847C" stroke-width="1.17" stroke-miterlimit="10"/>
<path d="M4.71143 14.4844H13.3247" stroke="#00847C" stroke-width="1.17" stroke-miterlimit="10"/>
<path d="M5.41455 12.3398C5.41455 10.9807 6.51635 9.87891 7.87549 9.87891C9.23463 9.87891 10.3364 10.9807 10.3364 12.3398" stroke="#00847C" stroke-width="1.17" stroke-miterlimit="10" stroke-linejoin="round"/>
<path d="M6.50439 8.47266C6.50439 7.69598 7.13401 7.06641 7.91064 7.06641C8.68728 7.06641 9.31689 7.69598 9.31689 8.47266C9.31689 9.24933 8.68728 9.87891 7.91064 9.87891C7.13401 9.87891 6.50439 9.24933 6.50439 8.47266Z" stroke="#00847C" stroke-width="1.17" stroke-miterlimit="10" stroke-linecap="round" stroke-linejoin="round"/>
</g>
</svg>
