<svg width="54" height="54" viewBox="0 0 54 54" fill="none" xmlns="http://www.w3.org/2000/svg">
<path d="M30.3321 6.79951V6.78694C29.6732 6.41043 29.2026 5.79546 29.0018 5.06127C28.801 4.32707 28.9014 3.55526 29.2779 2.89636L28.1483 2.25C27.3702 3.61799 25.6258 4.09494 24.2578 3.31055L23.9377 3.87525L23.6177 4.44003C24.2452 4.79772 24.697 5.37508 24.9167 6.05908C24.9292 6.09673 24.948 6.12806 24.9543 6.16571C25.0798 6.61752 25.0735 7.08191 24.9794 7.52745C24.9166 7.80356 24.8288 8.07968 24.6845 8.33069L25.814 8.97698C26.5733 7.64036 28.2613 7.16344 29.6105 7.87254L45.951 17.3042V39.1857L41.2635 41.8903L31.2106 47.6949C30.0937 48.3412 28.6943 48.1279 27.8032 47.2305C28.2676 46.3834 28.4307 45.3981 28.2362 44.4443C28.1546 44.0302 27.9978 43.6348 27.8032 43.2709C27.9789 43.0952 28.1672 42.932 28.3868 42.8065L28.437 42.7814L31.6562 40.9239L35.666 38.6084L36.8207 37.9432L39.9771 36.1234L40.2783 35.9478H40.3034V20.7053L27 13.0245L13.6966 20.7053V35.9289L15.7361 37.1087L22.3438 40.9239L25.6132 42.8128C26.316 43.2207 26.8117 43.9109 26.9686 44.7079C27.1945 45.8312 26.7176 47.0109 25.6885 47.6572C24.7786 48.2345 23.5989 48.1718 22.6638 47.6322L19.8275 45.9943L17.788 44.8145L12.7365 41.8966L8.04897 39.192V17.3104L23.831 8.19886C24.1573 7.52741 24.1887 6.95015 24.1323 6.52344L6.75 16.5574V39.9388L12.0839 43.0198L22.1368 48.8244C22.7768 49.1946 23.4859 49.3766 24.1887 49.3766C25.2178 49.3766 26.2219 48.9875 27 48.2722C27.7719 48.9938 28.7822 49.3766 29.8113 49.3766C30.5141 49.3766 31.2232 49.2009 31.8633 48.8244L36.4881 46.1574L47.25 39.9451V16.5637L30.3447 6.79951H30.3321ZM27.0878 6.42929C26.8745 6.49204 26.6737 6.57362 26.4729 6.66775C26.429 6.68658 26.3913 6.70538 26.3474 6.72421C26.3348 6.423 26.2846 6.12804 26.2031 5.8331C26.1654 5.68877 26.1152 5.54449 26.0587 5.40643C26.0023 5.26211 25.9395 5.12403 25.8705 4.99225C26.4729 4.96088 27.069 4.79772 27.6024 4.52161C27.615 4.77889 27.6589 5.04245 27.7216 5.29973C27.7279 5.33738 27.7342 5.37506 27.7468 5.41272C27.8283 5.70765 27.9413 5.99001 28.0793 6.25357C27.7405 6.27239 27.4079 6.33516 27.0878 6.42929ZM28.9327 20.2473L38.9919 26.0518V27.5516L28.2299 21.3391C28.4119 20.7869 28.7257 20.4355 28.939 20.2473H28.9327ZM14.983 26.0581L22.7956 21.5462C23.8436 20.9438 24.4774 19.7389 24.195 18.5655C24.1197 18.2454 23.9942 17.9317 23.8248 17.6368C24.7912 19.3122 26.931 19.8833 28.6065 18.9169C26.931 19.8833 26.3599 22.0231 27.3263 23.6986C27.2322 23.5354 27.1255 23.3848 27.0125 23.2467C26.1528 22.1925 24.6029 22.0043 23.4294 22.682L14.983 27.5578V26.0581ZM14.983 33.6196V32.534L26.9875 25.5999L38.9919 32.534V34.0338L26.9875 27.0997L14.983 34.0338V33.6196ZM26.9875 33.7702L19.7584 37.9432L18.4595 37.1902L26.9875 32.2704L35.5154 37.1902L34.2165 37.9432L26.9875 33.7702Z" fill="white"/>
</svg>
