<svg width="180" height="55" viewBox="0 0 180 55" fill="none" xmlns="http://www.w3.org/2000/svg">
<path d="M53.7453 31.22C53.6084 31.4002 53.4498 31.4939 53.2913 31.4939C53.1112 31.5371 52.9527 31.4939 52.8158 31.357L51.5908 30.269C52.1817 29.4475 52.7725 28.5396 53.3634 27.5597C53.9326 26.6014 54.4514 25.5349 54.9558 24.3748C55.4097 23.2364 55.8204 21.9898 56.1807 20.6208C56.4978 19.3022 56.75 17.8467 56.9301 16.2543L59.0701 16.5065C59.4808 16.6002 59.733 16.737 59.8627 16.9172C59.9564 17.1477 59.978 17.4648 59.906 17.8971C59.7691 18.8266 59.6105 19.7129 59.4304 20.556C59.1998 21.4206 58.9548 22.2348 58.681 23.0563C59.3151 24.31 60.0213 25.4197 60.7994 26.4213C61.5488 27.4228 62.3198 28.3306 63.1196 29.1521L62.0316 30.3771C61.7362 30.6941 61.4191 30.6941 61.0733 30.3771C60.3455 29.7142 59.661 29.0368 59.0485 28.3523C58.4144 27.6678 57.7948 26.9616 57.2543 26.2123C56.7572 27.0985 56.2312 27.9416 55.6619 28.7558C55.0711 29.5989 54.437 30.4131 53.7525 31.2129L53.7453 31.22ZM63.9555 37.0638V24.3533H62.1829C61.7722 24.3533 61.4984 24.2812 61.3182 24.1515C61.1165 24.0146 61.0228 23.7624 61.0228 23.3517V22.0547H63.9555V15.8004H65.5695C65.9298 15.8004 66.2036 15.894 66.4341 16.0525C66.6431 16.2327 66.7512 16.5065 66.7512 16.8451V36.0117C66.7512 36.3504 66.6359 36.6242 66.4341 36.8043C66.2036 36.9628 65.937 37.0566 65.5695 37.0566H63.9555V37.0638ZM68.041 37.0638V15.8076H69.655C70.0153 15.8076 70.2891 15.9012 70.5197 16.0597C70.7214 16.2399 70.8367 16.5137 70.8367 16.8523V36.0189C70.8367 36.3576 70.7214 36.6314 70.5197 36.8115C70.2891 36.97 70.0225 37.0638 69.655 37.0638H68.041Z" fill="white"/>
<path d="M72.307 27.474H91.9492V28.5404C91.9492 28.9007 91.8555 29.1962 91.697 29.4051C91.5169 29.6357 91.2431 29.7221 90.8972 29.7221H83.5332V35.8829C83.5332 36.2215 83.4179 36.4953 83.2161 36.6827C82.9856 36.8412 82.7189 36.9349 82.3515 36.9349H80.7374V29.7294H73.3446C72.9843 29.7294 72.7321 29.6357 72.5736 29.4124C72.3935 29.2034 72.2998 28.9151 72.2998 28.5476V27.4812L72.307 27.474ZM75.218 16.3344H89.0886V21.6087C89.0886 22.3149 88.9949 22.9058 88.8364 23.3597C88.6563 23.8353 88.4041 24.2243 88.0871 24.4982C87.7268 24.8152 87.2944 25.0242 86.7901 25.1322C86.2424 25.2691 85.63 25.334 84.9238 25.334H79.2603C77.8769 25.334 76.8537 25.0602 76.2124 24.4693C75.5279 23.9001 75.2108 22.9202 75.2108 21.5583V16.3271L75.218 16.3344ZM84.4915 23.0859C85.104 23.0859 85.5579 22.9922 85.8533 22.7688C86.1272 22.5887 86.2857 22.1564 86.2857 21.4719V18.5825H78.0065V21.4719C78.0065 22.106 78.1435 22.5383 78.4173 22.7473C78.6911 22.9778 79.1018 23.0859 79.6926 23.0859H84.4915Z" fill="white"/>
<path d="M97.9361 27.95H99.824C100.163 27.95 100.415 28.0437 100.552 28.2238C100.667 28.4039 100.732 28.6345 100.732 28.8579V30.8826H107.419V32.1291C107.419 32.5398 107.325 32.7921 107.145 32.929C106.943 33.0659 106.648 33.1307 106.258 33.1307H100.732C100.732 33.7215 100.826 34.2475 100.984 34.651C101.121 35.0618 101.344 35.3789 101.669 35.6311C101.942 35.8616 102.331 36.0418 102.807 36.1571C103.261 36.2507 103.787 36.2939 104.421 36.2939C105.055 36.2939 105.603 36.2291 106.078 36.1354C106.532 36.0201 106.921 35.84 107.238 35.5878C107.512 35.314 107.736 34.9753 107.894 34.5646C108.031 34.1106 108.096 33.5631 108.096 32.929V22.308H104.774V22.7404C104.774 23.4466 104.68 24.0374 104.522 24.4913C104.342 24.9669 104.09 25.356 103.773 25.6298C103.412 25.9469 102.973 26.1558 102.476 26.2639C101.928 26.4008 101.316 26.4656 100.609 26.4656H98.1091C96.7184 26.4656 95.6952 26.1918 95.0611 25.601C94.3766 25.0317 94.0596 24.0518 94.0596 22.6899V16.3203H95.6304C95.9907 16.3203 96.2645 16.414 96.495 16.5725C96.6968 16.7526 96.8121 17.0264 96.8121 17.3651V19.2097H102.022V16.3203H103.592C103.953 16.3203 104.227 16.414 104.457 16.5725C104.666 16.7526 104.774 17.0264 104.774 17.3651V20.0023H108.096V15.7943H109.71C110.07 15.7943 110.344 15.888 110.575 16.0465C110.776 16.2266 110.892 16.5004 110.892 16.8391V32.9794C110.892 34.0242 110.733 34.8889 110.438 35.6166C110.121 36.3228 109.71 36.8919 109.162 37.3459C108.593 37.7566 107.916 38.0737 107.116 38.2538C106.295 38.4339 105.408 38.5276 104.407 38.5276C103.405 38.5276 102.497 38.4339 101.697 38.2538C100.876 38.0737 100.22 37.7566 99.6727 37.3459C99.1034 36.8919 98.6711 36.3228 98.3757 35.6166C98.0586 34.8889 97.9217 34.0242 97.9217 32.9794V27.9356L97.9361 27.95ZM100.235 24.268C100.847 24.268 101.301 24.1743 101.597 23.9509C101.87 23.7708 102.029 23.3385 102.029 22.654V21.4722H96.8193V22.654C96.8193 23.288 96.9562 23.7203 97.23 23.9293C97.5038 24.1598 97.9145 24.268 98.5054 24.268H100.235Z" fill="white"/>
<path d="M125.454 22.3079C125.454 23.2662 125.317 24.1021 125.065 24.8083C124.791 25.536 124.409 26.1269 123.926 26.6024C123.429 27.0996 122.86 27.4671 122.175 27.6905C121.469 27.9426 120.698 28.0507 119.877 28.0507C119.055 28.0507 118.284 27.9354 117.6 27.6905C116.915 27.4599 116.325 27.0996 115.849 26.6024C115.352 26.1269 114.963 25.5144 114.711 24.7866C114.437 24.0805 114.3 23.2662 114.3 22.3079C114.3 21.3495 114.437 20.5353 114.711 19.8076C114.963 19.1015 115.345 18.5106 115.849 18.0134C116.325 17.5379 116.915 17.1704 117.6 16.9254C118.284 16.6948 119.034 16.5651 119.877 16.5651C120.72 16.5651 121.469 16.702 122.175 16.9254C122.86 17.1776 123.429 17.5379 123.926 18.0134C124.402 18.5106 124.791 19.1015 125.065 19.8076C125.317 20.5353 125.454 21.3568 125.454 22.3079ZM117.11 22.3079C117.11 22.9924 117.175 23.5328 117.312 23.9652C117.427 24.4191 117.607 24.7866 117.859 25.0532C118.09 25.327 118.378 25.5288 118.746 25.6225C119.063 25.7594 119.452 25.8026 119.884 25.8026C120.316 25.8026 120.705 25.7594 121.066 25.6225C121.404 25.5288 121.7 25.327 121.952 25.0532C122.183 24.7794 122.341 24.4191 122.478 23.9652C122.593 23.5328 122.658 22.9852 122.658 22.3079C122.658 21.0325 122.406 20.1247 121.93 19.5771C121.433 19.0799 120.749 18.806 119.884 18.806C119.452 18.806 119.063 18.8781 118.746 18.9646C118.385 19.1015 118.09 19.2816 117.859 19.5554C117.607 19.8292 117.427 20.1895 117.312 20.6218C117.175 21.0758 117.11 21.6451 117.11 22.3008V22.3079ZM118.407 29.9241H120.043C120.403 29.9241 120.677 30.0178 120.907 30.1763C121.087 30.3565 121.203 30.6302 121.203 30.9689V32.4677C121.203 33.1306 121.296 33.6493 121.476 34.1033C121.657 34.514 121.909 34.8527 122.269 35.1265C122.586 35.3787 123.018 35.5588 123.523 35.6741C124.02 35.7678 124.589 35.8326 125.231 35.8326C126.412 35.8326 127.392 35.6021 128.163 35.1698C128.934 34.7158 129.46 34.0817 129.734 33.2386H131.96C132.393 33.2386 132.53 33.4692 132.371 33.9231C131.824 35.3354 130.959 36.4018 129.756 37.0864C128.531 37.7421 127.003 38.0879 125.231 38.0879C124.229 38.0879 123.299 37.9943 122.478 37.8141C121.635 37.634 120.907 37.3169 120.316 36.9062C119.704 36.4523 119.228 35.8831 118.904 35.177C118.565 34.4492 118.407 33.5845 118.407 32.5397V29.9241ZM128.574 30.27V15.8086H130.188C130.548 15.8086 130.822 15.9022 131.053 16.0608C131.254 16.2409 131.37 16.5147 131.37 16.8534V29.2252C131.37 29.5855 131.254 29.8377 131.053 29.9962C130.822 30.1763 130.555 30.27 130.188 30.27H128.574Z" fill="white"/>
<path d="M152.366 22.8545C152.366 23.6255 152.229 24.3101 151.977 24.901C151.703 25.5134 151.343 26.0394 150.889 26.4717C150.435 26.9256 149.888 27.2427 149.275 27.4733C148.641 27.7255 147.978 27.8335 147.25 27.8335C146.523 27.8335 145.867 27.7183 145.247 27.4733C144.613 27.2427 144.087 26.9256 143.633 26.4717C143.158 26.0394 142.79 25.5134 142.545 24.901C142.271 24.3101 142.135 23.6255 142.135 22.8545C142.135 22.3573 142.207 21.8962 142.336 21.4423C142.473 21.0099 142.653 20.5993 142.906 20.2174H142.156C141.745 20.2174 141.472 20.1525 141.292 20.0156C141.09 19.8787 140.996 19.6265 140.996 19.223V17.926H145.838V15.541H147.726C148.115 15.541 148.36 15.6347 148.475 15.7932C148.569 15.9733 148.634 16.2255 148.634 16.5425V17.926H153.498V19.223C153.498 19.6337 153.404 19.8787 153.224 20.0156C153.022 20.1525 152.727 20.2174 152.338 20.2174H151.588C151.819 20.6065 152.02 21.0099 152.157 21.4423C152.294 21.8962 152.359 22.3501 152.359 22.8545H152.366ZM151.026 38.3176C150.025 38.3176 149.117 38.2239 148.317 38.0438C147.495 37.8636 146.84 37.5466 146.292 37.1359C145.723 36.6819 145.291 36.1127 144.995 35.4065C144.678 34.6788 144.541 33.8141 144.541 32.7693V30.6797C144.541 30.4491 144.613 30.2258 144.75 30.0457C144.865 29.8655 145.089 29.7719 145.456 29.7719H153.843C154.096 29.6998 154.297 29.5197 154.478 29.2026C154.614 28.9288 154.708 28.5469 154.708 28.0425V15.8076H156.322C156.682 15.8076 156.956 15.9013 157.187 16.0598C157.389 16.2399 157.504 16.5137 157.504 16.8524V20.9235H160.501V22.2204C160.501 22.6312 160.408 22.8834 160.228 23.0131C160.026 23.15 159.73 23.222 159.341 23.222H157.497V27.0626C157.497 27.5165 157.425 27.884 157.338 28.201C157.223 28.5397 157.086 28.8135 156.927 29.0225C156.747 29.253 156.538 29.4332 156.337 29.5485C156.106 29.6854 155.904 29.7502 155.703 29.779H156.589C156.927 29.779 157.18 29.8727 157.317 30.0528C157.432 30.2329 157.497 30.4635 157.497 30.6869V32.7765C157.497 33.8213 157.338 34.686 157.043 35.4137C156.726 36.1199 156.315 36.6891 155.767 37.1431C155.198 37.5538 154.514 37.8708 153.721 38.051C152.9 38.2311 152.013 38.3248 151.012 38.3248L151.026 38.3176ZM144.909 22.8545C144.909 23.7192 145.118 24.3533 145.543 24.8073C145.953 25.2612 146.523 25.4918 147.25 25.4918C148.021 25.4918 148.591 25.2612 149.001 24.7856C149.39 24.3317 149.592 23.6687 149.592 22.8545C149.592 22.0403 149.39 21.4207 149.023 20.9451C148.634 20.4912 148.094 20.2606 147.366 20.2174H147.25C146.523 20.2174 145.953 20.4479 145.543 20.9019C145.11 21.3774 144.909 22.0403 144.909 22.8545ZM151.026 36.0623C151.66 36.0623 152.208 35.9973 152.683 35.9037C153.137 35.7884 153.526 35.6083 153.843 35.3561C154.117 35.0823 154.341 34.7436 154.499 34.3329C154.636 33.879 154.701 33.3313 154.701 32.6973V32.0632H147.337V32.6973C147.337 33.3313 147.402 33.879 147.568 34.3329C147.704 34.7436 147.906 35.0823 148.23 35.3561C148.504 35.6083 148.886 35.7884 149.369 35.9037C149.823 35.9973 150.392 36.0623 151.026 36.0623Z" fill="white"/>
<path d="M162.354 19.0366C161.943 19.0366 161.669 18.9718 161.532 18.7845C161.374 18.6259 161.302 18.3521 161.302 17.9918V16.7885H164.782C165.416 16.7885 165.848 16.9254 166.079 17.1776C166.259 17.4514 166.353 17.8837 166.331 18.453C166.259 19.4978 166.151 20.4994 166.014 21.4793C165.856 22.4809 165.625 23.4608 165.351 24.3687C165.034 25.3271 164.667 26.2349 164.234 27.0996C163.78 28.0074 163.233 28.8721 162.599 29.6935C162.368 29.9673 162.145 30.0106 161.892 29.8305L160.257 28.7424C161.417 27.2653 162.238 25.7161 162.736 24.0805C163.189 22.4881 163.463 20.8092 163.528 19.0583H162.346L162.354 19.0366ZM173.227 37.0648V24.3543H170.95C170.59 25.8098 170.128 27.1716 169.559 28.447C168.968 29.744 168.262 30.9257 167.448 31.9921C167.333 32.129 167.217 32.2227 167.109 32.2227C166.972 32.2443 166.835 32.2226 166.72 32.129L164.969 31.1059C166.194 29.4702 167.174 27.6472 167.859 25.6512C168.522 23.6986 168.86 21.4937 168.903 19.0366H167.787C167.376 19.0366 167.102 18.9718 166.965 18.7845C166.807 18.6259 166.735 18.3521 166.735 17.9918V16.7885H170.164C170.798 16.7885 171.209 16.9254 171.418 17.1776C171.598 17.4514 171.692 17.8837 171.692 18.453C171.649 19.087 171.627 19.7068 171.577 20.2976C171.533 20.9101 171.461 21.5009 171.397 22.0701H173.212V15.8158H174.711C175.071 15.8158 175.345 15.9095 175.576 16.068C175.785 16.2481 175.893 16.5219 175.893 16.8606V36.0272C175.893 36.3658 175.777 36.6396 175.576 36.8198C175.345 36.9783 175.079 37.072 174.711 37.072H173.212L173.227 37.0648ZM177.319 37.0648V15.8086H178.818C179.178 15.8086 179.452 15.9022 179.683 16.0608C179.885 16.2409 180 16.5147 180 16.8534V36.02C180 36.3586 179.885 36.6324 179.683 36.8125C179.452 36.9711 179.186 37.0648 178.818 37.0648H177.319Z" fill="white"/>
<path d="M72.4941 44.1761H70.3973V50.2791H69.7488V44.1761H67.6592V43.5996H72.4941V44.1761Z" fill="white"/>
<path d="M74.7208 45.6027C75.2684 45.6027 75.8809 45.8909 76.3132 46.5826V45.5739H76.9545V50.2719H76.3132V49.3351C75.8593 50.0701 75.2756 50.3439 74.7208 50.3439C73.4022 50.3439 72.4727 49.364 72.4727 47.9589C72.4727 46.5538 73.4022 45.5955 74.7208 45.5955V45.6027ZM76.3276 47.9661C76.3204 46.9285 75.5566 46.1791 74.7208 46.1791C73.7841 46.1791 73.114 46.9213 73.114 47.9661C73.114 49.0109 73.7841 49.7675 74.7208 49.7675C75.5566 49.7675 76.3132 49.0181 76.3276 47.9661Z" fill="white"/>
<path d="M80.4993 47.9301L82.2863 50.2791H81.472L80.1751 48.5281L78.8709 50.2791H78.0566L79.8364 47.9301L78.0566 45.5739H78.8853L80.1823 47.3464L81.472 45.5739H82.3007L80.5137 47.9301H80.4993Z" fill="white"/>
<path d="M91.7108 50.2791H91.0119L90.212 48.348H86.9552L86.1482 50.2791H85.4492L88.2305 43.5996H88.9439L91.6964 50.2791H91.7108ZM89.9743 47.7716L88.6052 44.421L87.2074 47.7716H89.9815H89.9743Z" fill="white"/>
<path d="M95.5369 49.1923L96.0124 49.6102C95.5873 50.0354 94.8812 50.3308 94.3047 50.3308C92.8924 50.3308 91.9053 49.3365 91.9053 47.9386C91.9053 46.5407 92.8996 45.5535 94.3047 45.5535C94.8812 45.5535 95.5873 45.849 96.0124 46.2741L95.5369 46.6921C95.227 46.375 94.701 46.1661 94.2687 46.1661C93.2671 46.1661 92.5538 46.901 92.5538 47.9386C92.5538 48.9762 93.2671 49.7183 94.2687 49.7183C94.7082 49.7183 95.2342 49.5022 95.5369 49.1923Z" fill="white"/>
<path d="M100.034 49.1923L100.509 49.6102C100.084 50.0354 99.3782 50.3308 98.8018 50.3308C97.3895 50.3308 96.4023 49.3365 96.4023 47.9386C96.4023 46.5407 97.3967 45.5535 98.8018 45.5535C99.3782 45.5535 100.084 45.849 100.509 46.2741L100.034 46.6921C99.7241 46.375 99.1981 46.1661 98.7657 46.1661C97.7642 46.1661 97.0509 46.901 97.0509 47.9386C97.0509 48.9762 97.7642 49.7183 98.7657 49.7183C99.2053 49.7183 99.7313 49.5022 100.034 49.1923Z" fill="white"/>
<path d="M103.334 45.5376C104.653 45.5376 105.582 46.5319 105.582 47.9298C105.582 49.3277 104.653 50.3148 103.334 50.3148C102.015 50.3148 101.086 49.3349 101.086 47.9298C101.086 46.5247 102.015 45.5376 103.334 45.5376ZM104.934 47.9298C104.934 46.8634 104.278 46.1212 103.341 46.1212C102.405 46.1212 101.749 46.8634 101.749 47.9298C101.749 48.9962 102.405 49.7384 103.341 49.7384C104.278 49.7384 104.934 48.9962 104.934 47.9298Z" fill="white"/>
<path d="M108.528 49.7036C109.364 49.7036 109.955 49.156 109.955 48.3706V45.5821H110.596V50.2801H109.955V49.4803C109.631 49.9414 109.047 50.2801 108.536 50.2801C107.44 50.2801 106.662 49.5235 106.662 48.4354V45.5821H107.311V48.3634C107.311 49.1488 107.808 49.7108 108.528 49.7108V49.7036Z" fill="white"/>
<path d="M113.94 46.1503C113.097 46.1503 112.514 46.7988 112.514 47.4978V50.2791H111.865V45.5811H112.514V46.3809C112.838 45.9053 113.422 45.5739 113.933 45.5739C115.057 45.5739 115.799 46.3592 115.799 47.4401V50.2863H115.158V47.505C115.158 46.7196 114.647 46.1575 113.94 46.1575V46.1503Z" fill="white"/>
<path d="M117.198 49.0196V46.1518H116.427V45.5754H117.198V44.3577H117.839V45.5754H119.035V46.1518H117.839V48.962C117.839 49.3583 118.098 49.7113 118.452 49.7113C118.668 49.7113 118.747 49.6825 118.905 49.6537L119.006 50.2445C118.855 50.2733 118.718 50.295 118.452 50.295C117.738 50.295 117.227 49.7762 117.198 49.0124V49.0196Z" fill="white"/>
<path d="M120.411 43.5353C120.642 43.5353 120.822 43.7154 120.822 43.946C120.822 44.1766 120.649 44.364 120.411 44.364C120.173 44.364 119.993 44.1838 119.993 43.946C119.993 43.7082 120.166 43.5353 120.411 43.5353ZM120.735 45.5673V50.2797H120.087V45.5673H120.735Z" fill="white"/>
<path d="M124.129 46.1503C123.286 46.1503 122.702 46.7988 122.702 47.4978V50.2791H122.054V45.5811H122.702V46.3809C123.026 45.9053 123.61 45.5739 124.122 45.5739C125.246 45.5739 125.988 46.3592 125.988 47.4401V50.2863H125.347V47.505C125.347 46.7196 124.835 46.1575 124.129 46.1575V46.1503Z" fill="white"/>
<path d="M129.231 45.6111C129.944 45.6111 130.549 45.9786 130.823 46.591V45.5678H131.464V50.0496C131.443 51.4331 130.564 52.4058 129.173 52.4058C128.431 52.4058 127.761 52.0744 127.278 51.3466L127.818 51.0224C128.164 51.5628 128.632 51.8294 129.173 51.8294C130.182 51.8294 130.816 51.0873 130.823 50.0281V49.3147C130.499 49.9056 129.843 50.3451 129.231 50.3451C127.912 50.3451 126.982 49.3652 126.982 47.9601C126.982 46.555 127.912 45.6039 129.231 45.6039V45.6111ZM130.823 47.9673C130.823 47.0234 130.11 46.1875 129.238 46.1875C128.301 46.1875 127.631 46.9297 127.631 47.9673C127.631 49.0049 128.301 49.7687 129.238 49.7687C130.117 49.7687 130.823 48.94 130.823 47.9673Z" fill="white"/>
<path d="M139.722 44.1761H137.625V50.2791H136.976V44.1761H134.887V43.5996H139.722V44.1761Z" fill="white"/>
<path d="M141.948 45.5376C143.267 45.5376 144.196 46.5319 144.196 47.9298C144.196 49.3277 143.267 50.3148 141.948 50.3148C140.63 50.3148 139.7 49.3349 139.7 47.9298C139.7 46.5247 140.63 45.5376 141.948 45.5376ZM143.541 47.9298C143.541 46.8634 142.885 46.1212 141.948 46.1212C141.012 46.1212 140.356 46.8634 140.356 47.9298C140.356 48.9962 141.012 49.7384 141.948 49.7384C142.885 49.7384 143.541 48.9962 143.541 47.9298Z" fill="white"/>
<path d="M147.251 45.6111C147.964 45.6111 148.57 45.9786 148.843 46.591V45.5678H149.485V50.0496C149.463 51.4331 148.584 52.4058 147.193 52.4058C146.451 52.4058 145.781 52.0744 145.298 51.3466L145.839 51.0224C146.185 51.5628 146.653 51.8294 147.193 51.8294C148.202 51.8294 148.836 51.0873 148.843 50.0281V49.3147C148.519 49.9056 147.864 50.3451 147.251 50.3451C145.932 50.3451 145.003 49.3652 145.003 47.9601C145.003 46.555 145.932 45.6039 147.251 45.6039V45.6111ZM148.843 47.9673C148.843 47.0234 148.13 46.1875 147.258 46.1875C146.322 46.1875 145.651 46.9297 145.651 47.9673C145.651 49.0049 146.322 49.7687 147.258 49.7687C148.137 49.7687 148.843 48.94 148.843 47.9673Z" fill="white"/>
<path d="M152.627 45.5447C154.082 45.5447 154.5 46.712 154.543 46.8273C154.824 47.5983 154.709 48.2468 154.709 48.254H151.07C151.193 49.1187 151.834 49.7312 152.627 49.7312C153.7 49.7312 154.017 49.061 154.082 48.9673L154.579 49.27C154.579 49.27 154.154 50.3004 152.612 50.3004C151.301 50.3004 150.386 49.3276 150.386 47.9226C150.386 46.5175 151.301 45.5376 152.612 45.5376L152.627 45.5447ZM152.655 46.1284C151.827 46.1284 151.193 46.7625 151.077 47.6776H154.075C154.003 46.8994 153.664 46.1284 152.655 46.1284Z" fill="white"/>
<path d="M155.962 49.0196V46.1518H155.191V45.5754H155.962V44.3577H156.604V45.5754H157.8V46.1518H156.604V48.962C156.604 49.3583 156.863 49.7113 157.216 49.7113C157.432 49.7113 157.512 49.6825 157.67 49.6537L157.771 50.2445C157.62 50.2733 157.483 50.295 157.216 50.295C156.503 50.295 155.991 49.7762 155.962 49.0124V49.0196Z" fill="white"/>
<path d="M160.927 46.1791C160.178 46.1791 159.529 46.9213 159.529 47.822V50.2791H158.881V43.5996H159.529V46.4674C159.76 45.9846 160.293 45.5955 160.927 45.5955C162.001 45.5955 162.765 46.4242 162.765 47.5987V50.2791H162.123V47.6275C162.123 46.7772 161.619 46.1791 160.927 46.1791Z" fill="white"/>
<path d="M166.136 45.5447C167.592 45.5447 168.01 46.712 168.053 46.8273C168.334 47.5983 168.219 48.2468 168.219 48.254H164.58C164.703 49.1187 165.344 49.7312 166.136 49.7312C167.21 49.7312 167.527 49.061 167.592 48.9673L168.089 49.27C168.089 49.27 167.664 50.3004 166.122 50.3004C164.811 50.3004 163.896 49.3276 163.896 47.9226C163.896 46.5175 164.811 45.5376 166.122 45.5376L166.136 45.5447ZM166.165 46.1284C165.337 46.1284 164.703 46.7625 164.587 47.6776H167.585C167.513 46.8994 167.174 46.1284 166.165 46.1284Z" fill="white"/>
<path d="M171.534 45.5173V46.1586C170.64 46.1586 169.848 46.9367 169.848 47.8446V50.2729H169.199V45.5749H169.848V46.5692C170.107 45.9568 170.813 45.5245 171.534 45.5245V45.5173Z" fill="white"/>
<path d="M27.0783 5.22399V5.20956C26.3217 4.77723 25.7813 4.07109 25.5507 3.22805C25.3201 2.38501 25.4354 1.49876 25.8677 0.742187L24.5708 0C23.6773 1.5708 21.6741 2.11846 20.1033 1.21777L19.7359 1.8662L19.3684 2.51471C20.0889 2.92542 20.6077 3.58839 20.8599 4.37379C20.8743 4.41702 20.896 4.45299 20.9032 4.49622C21.0473 5.01502 21.0401 5.54826 20.932 6.05985C20.8599 6.37689 20.759 6.69395 20.5933 6.98217L21.8903 7.72427C22.7622 6.1895 24.7005 5.64188 26.2496 6.4561L45.0127 17.286V42.4115L39.6302 45.5172L28.087 52.1822C26.8045 52.9244 25.1976 52.6794 24.1744 51.649C24.7077 50.6763 24.895 49.545 24.6716 48.4498C24.578 47.9742 24.3978 47.5202 24.1744 47.1023C24.3762 46.9006 24.5924 46.7132 24.8446 46.5691L24.9022 46.5403L28.5986 44.4075L33.2029 41.7487L34.5287 40.9849L38.1531 38.8953L38.499 38.6936H38.5278V21.1914L23.2521 12.3719L7.97649 21.1914V38.6719L10.3183 40.0266L17.9057 44.4075L21.6597 46.5763C22.4668 47.0447 23.036 47.8373 23.2161 48.7524C23.4755 50.0422 22.9279 51.3968 21.7462 52.139C20.7014 52.8019 19.3468 52.7299 18.2731 52.1102L15.0163 50.2295L12.6745 48.8749L6.87405 45.5244L1.49154 42.4188V17.2932L19.6134 6.8308C19.9881 6.05981 20.0241 5.39696 19.9592 4.90699L0 16.4286V43.2763L6.12467 46.8141L17.6679 53.4792C18.4028 53.9043 19.2171 54.1133 20.0241 54.1133C21.2058 54.1133 22.3587 53.6665 23.2521 52.8451C24.1384 53.6737 25.2985 54.1133 26.4802 54.1133C27.2872 54.1133 28.1014 53.9115 28.8364 53.4792L34.1469 50.4168L46.5043 43.2835V16.4358L27.0927 5.22399H27.0783ZM23.353 4.79889C23.108 4.87094 22.8775 4.96462 22.6469 5.0727C22.5964 5.09431 22.5532 5.11591 22.5028 5.13752C22.4884 4.79166 22.4307 4.45297 22.337 4.11431C22.2938 3.94858 22.2362 3.78291 22.1713 3.62439C22.1065 3.45866 22.0344 3.30011 21.9552 3.1488C22.6469 3.11277 23.3314 2.92543 23.9439 2.60839C23.9583 2.90381 24.0087 3.20644 24.0808 3.50186C24.088 3.54509 24.0952 3.58837 24.1096 3.6316C24.2033 3.97026 24.333 4.29448 24.4915 4.59711C24.1024 4.61873 23.7205 4.6908 23.353 4.79889ZM25.4714 20.6654L37.0219 27.3305V29.0526L24.6644 21.9192C24.8734 21.2851 25.2337 20.8816 25.4786 20.6654H25.4714ZM9.44641 27.3377L18.4173 22.1569C19.6206 21.4652 20.3483 20.0817 20.0241 18.7343C19.9376 18.3668 19.7935 18.0066 19.599 17.6679C20.7086 19.5918 23.1657 20.2475 25.0895 19.1378C23.1657 20.2475 22.51 22.7046 23.6196 24.6284C23.5115 24.4411 23.389 24.2681 23.2593 24.1096C22.2722 22.899 20.4924 22.6829 19.145 23.4611L9.44641 29.0597V27.3377ZM9.44641 36.0203V34.7737L23.2305 26.8116L37.0146 34.7737V36.4959L23.2305 28.5338L9.44641 36.4959V36.0203ZM23.2377 36.1932L14.937 40.9849L13.4455 40.1202L23.2377 34.4711L33.03 40.1202L31.5385 40.9849L23.2377 36.1932Z" fill="white"/>
</svg>
