<svg width="200" height="233" viewBox="0 0 200 233" fill="none" xmlns="http://www.w3.org/2000/svg">
<path d="M116.455 22.4933V22.4312C113.201 20.5697 110.877 17.5292 109.885 13.8993C108.894 10.2693 109.39 6.45336 111.249 3.1957L105.671 0C101.828 6.76352 93.2135 9.12164 86.458 5.24347L84.8776 8.03545L83.2972 10.8278C86.396 12.5962 88.6272 15.4508 89.7118 18.8326C89.7738 19.0187 89.8668 19.1736 89.8978 19.3598C90.5175 21.5936 90.4865 23.8896 90.0217 26.0924C89.7118 27.4575 89.278 28.8227 88.5652 30.0637L94.1432 33.259C97.8928 26.6507 106.229 24.2927 112.891 27.7986L193.585 74.4297V182.615L170.437 195.987L120.793 224.685C115.277 227.881 108.367 226.826 103.967 222.39C106.26 218.201 107.065 213.33 106.105 208.614C105.702 206.566 104.927 204.612 103.967 202.812C104.834 201.944 105.764 201.137 106.848 200.517L107.096 200.392L122.993 191.209L142.795 179.761L148.497 176.472L164.084 167.475L165.572 166.606H165.696V91.2455L100 53.2706L34.3043 91.2455V166.513L44.3756 172.346L77.0065 191.209L93.1516 200.548C96.6223 202.564 99.0703 205.977 99.8451 209.917C100.961 215.471 98.6055 221.303 93.5234 224.499C89.0301 227.353 83.2042 227.043 78.5869 224.375L64.5801 216.277L54.5089 210.445L29.5631 196.018L6.41465 182.646V74.4607L84.3508 29.4119C85.9622 26.0922 86.1172 23.2381 85.8383 21.1284L0 70.7379V186.338L26.3403 201.571L75.9839 230.27C79.1447 232.1 82.6464 233 86.1172 233C91.1993 233 96.1574 231.076 100 227.54C103.812 231.107 108.801 233 113.883 233C117.354 233 120.855 232.131 124.016 230.27L146.855 217.084L200 186.369V70.7689L116.517 22.4933H116.455ZM100.434 20.663C99.3802 20.9732 98.3886 21.3766 97.397 21.8419C97.1801 21.935 96.9941 22.028 96.7772 22.1211C96.7152 20.6318 96.4673 19.1735 96.0644 17.7153C95.8785 17.0017 95.6306 16.2884 95.3517 15.6058C95.0728 14.8922 94.7629 14.2096 94.4221 13.558C97.397 13.4029 100.341 12.5963 102.975 11.2311C103.037 12.5032 103.254 13.8062 103.564 15.0783C103.595 15.2644 103.626 15.4507 103.688 15.6369C104.09 17.0951 104.648 18.4911 105.33 19.7942C103.657 19.8872 102.014 20.1976 100.434 20.663ZM109.544 88.9808L159.219 117.679V125.094L106.074 94.3791C106.972 91.6489 108.522 89.9115 109.575 88.9808H109.544ZM40.626 117.71L79.2067 95.4028C84.3818 92.4244 87.5116 86.4675 86.1172 80.6658C85.7453 79.0835 85.1255 77.5323 84.2888 76.0741C89.0611 84.3579 99.6282 87.1813 107.902 82.4034C99.6282 87.1813 96.8082 97.7609 101.58 106.045C101.116 105.238 100.589 104.493 100.031 103.811C95.7855 98.5983 88.1314 97.6679 82.3365 101.019L40.626 125.125V117.71ZM40.626 155.095V149.728L99.907 115.445L159.188 149.728V157.143L99.907 122.86L40.626 157.143V155.095ZM99.938 155.84L64.2393 176.472L57.8246 172.749L99.938 148.425L142.051 172.749L135.637 176.472L99.938 155.84Z" fill="#E4E4E4"/>
</svg>
